Coordinates
version=1
nRows=8
nColumns=36
inDegrees=yes

Units are S.I. units (second, meters, Newtons, ...)
If the header above contains a line with 'inDegrees', this indicates whether rotational values are in degrees (yes) or radians (no).

endheader
time	pelvis_tilt	pelvis_list	pelvis_rotation	pelvis_tx	pelvis_ty	pelvis_tz	hip_flexion_r	hip_adduction_r	hip_rotation_r	knee_angle_r	knee_angle_r_beta	ankle_angle_r	subtalar_angle_r	mtp_angle_r	hip_flexion_l	hip_adduction_l	hip_rotation_l	knee_angle_l	knee_angle_l_beta	ankle_angle_l	subtalar_angle_l	mtp_angle_l	lumbar_extension	lumbar_bending	lumbar_rotation	arm_flex_r	arm_add_r	arm_rot_r	elbow_flex_r	pro_sup_r	arm_flex_l	arm_add_l	arm_rot_l	elbow_flex_l	pro_sup_l
      0.00000000	     -2.01932261	     -1.52886731	     12.95956962	     -0.04212392	      1.31850475	     -0.09315538	     -3.18978377	      2.96692090	      3.13067822	      1.50029393	      0.02618507	      0.34600684	    -16.52149777	     -7.42491639	     -0.47149025	     -0.23655768	     10.45333782	      4.74248678	      0.08277201	      3.98935894	    -12.66340640	     -7.42491639	     -8.85849137	      0.18257456	     -4.20935723	    -25.55111156	    -25.81459293	     13.22517980	    107.34803460	     96.03589348	    -30.95094249	    -19.73887179	      4.11407158	    102.91241163	     96.87770769
      0.01666670	     -4.85509346	     -2.46070384	     12.11043083	     -0.04014011	      1.31021899	     -0.09336398	     -0.42542177	      3.13213337	      4.16193108	      1.52737720	      0.02665776	      2.06905873	    -12.12832071	     -7.44109527	      2.08470990	     -0.22402650	     11.21496438	      4.30028061	      0.07505406	      3.68199684	    -10.90563689	     -7.44109527	     -4.77924898	      0.54017127	     -3.56781341	    -27.25570617	    -27.70185567	     13.84280435	    108.25724252	     98.15475444	    -33.54046880	    -18.78397273	      3.69768891	    103.65178312	     99.00547200
      0.03333330	     -5.86669959	     -2.34035188	     11.28893964	     -0.04444238	      1.31094825	     -0.09467080	      0.57699307	      2.67642473	      4.40905107	      1.33297432	      0.02326479	      2.92785031	    -11.59310843	     -7.44195379	      2.98313057	      0.49344220	     10.62749245	      4.37709675	      0.07639475	      4.09813495	    -10.55963521	     -7.44195379	     -3.93431635	      0.13856241	     -2.89539623	    -27.13244412	    -28.41890539	     13.26804822	    108.57806681	     98.30838172	    -33.80200278	    -18.74087884	      2.88980808	    104.18915783	     98.99749065
      0.05000000	     -6.38477576	     -2.16974545	     11.10659089	     -0.03899485	      1.30500723	     -0.09172919	      0.98775979	      2.41184514	      4.43454553	      1.11005178	      0.01937406	      3.54450485	    -10.93814149	     -7.44684708	      2.87689121	      0.82468674	     10.74990388	      3.97123384	      0.06931111	      3.92675094	    -10.55530606	     -7.44684708	     -3.40337204	     -0.34084505	     -3.20674621	    -28.07512602	    -28.08228820	     12.39645716	    109.24093407	     98.25602037	    -34.35343303	    -18.37709493	      1.24232602	    105.31671083	     98.29313515
      0.06666670	     -6.81163470	     -2.10109005	     10.74372070	     -0.03858354	      1.30590763	     -0.09130365	      1.35608208	      2.32125299	      4.49475455	      0.98599089	      0.01720879	      4.17307077	    -10.51067453	     -7.46736995	      2.99658919	      1.03296869	     10.61091041	      3.79989884	      0.06632075	      4.50697216	    -10.06929788	     -7.46736995	     -2.99347273	     -0.54747395	     -2.87522059	    -28.85326548	    -27.74332175	     11.98855941	    109.07980846	    101.96475382	    -34.15188038	    -17.94398534	      0.52011446	    105.24095113	     99.86658304
      0.08333330	     -7.22812855	     -2.02931805	     10.53180773	     -0.04384478	      1.30139800	     -0.08867344	      1.92393254	      2.25455586	      4.85652783	      0.97321039	      0.01698573	      4.61486030	    -10.72445682	     -7.47420245	      3.43026589	      1.16542843	     10.77127637	      3.76657248	      0.06573909	      4.75796997	    -10.45096644	     -7.47420245	     -2.71115406	     -0.79324888	     -2.75058200	    -28.78434273	    -27.88134716	     12.45809287	    109.41063893	    102.42761049	    -33.92640667	    -17.96804903	      0.15925963	    105.89062479	     99.70895699
      0.10000000	     -7.56835008	     -1.98496540	     10.33339819	     -0.04299752	      1.30221415	     -0.08839306	      2.34047668	      2.18557353	      5.03776368	      0.97411501	      0.01700151	      4.74421851	    -10.88266139	     -7.48553328	      3.71085149	      1.21234115	     10.93551179	      3.55690287	      0.06207967	      5.02292737	    -10.35992145	     -7.48553328	     -2.41502205	     -0.97922225	     -2.63044865	    -28.65207356	    -28.15811461	     13.02805987	    109.36397422	    102.07285788	    -33.82128836	    -17.98814311	      0.01217514	    106.21323567	     98.88852425
      0.11666670	     -7.90567653	     -1.93609292	     10.18324687	     -0.04326623	      1.29972570	     -0.08842276	      2.76745799	      2.10095767	      5.18141230	      1.02008354	      0.01780382	      4.78087554	    -11.25834749	     -7.49102775	      4.15884214	      1.32839568	     11.07087414	      3.59181641	      0.06268902	      5.29078114	    -10.39517338	     -7.49102775	     -2.15815084	     -1.21153993	     -2.32591688	    -28.24156077	    -28.67188526	     14.08091350	    109.23708839	    101.65138841	    -33.81707637	    -18.12384386	     -0.02643600	    106.54811206	     98.93166937
